PathFileType	4	(x/y/z)	S05_M20_T08
DataRate	CameraRate	NumFrames	NumMarkers	Units	OrigDataRate	OrigDataStartFrame	OrigNumFrames
240	240	6	50	mm	240	324	518
Frame#	Time	Sternum			R.Acromium			L.Acromium			Top.Head			R.ASIS			L.ASIS			R.PSIS			L.PSIS			R.Great.Tro			L.Great.Tro			R.Iliac.Crest			L.Iliac.Crest			V.Sacral			R.Thigh.Upper.Post			R.Thigh.Lower.Ant			R.Thigh.Lower.Post			R.Thigh.Upper.Ant			R.Knee.Lat			R.Knee.Med			R.Shank.Upper.Post			R.Shank.Lower.Ant			R.Shank.Lower.Post			R.Shank.Upper.Ant			R.Ankle.Lat			R.Ankle.Med			R.Heel.Upper			R.Heel.Med			R.Heel.Lat			R.Toe.Lat			R.Toe.Med			R.Toe.Tip			L.Thigh.Upper.Post			L.Thigh.Lower.Ant			L.Thigh.Lower.Post			L.Thigh.Upper.Ant			L.Knee.Lat			L.Shank.Upper.Post			L.Shank.Lower.Ant			L.Shank.Lower.Post			L.Shank.Upper.Ant			L.Ankle.Lat			L.Ankle.Med			L.Heel.Upper			L.Heel.Med			L.Heel.Lat			L.Toe.Lat			L.Toe.Med			L.Toe.Tip			Cervical.Spine			Back			
		X1	Y1	Z1	X2	Y2	Z2	X3	Y3	Z3	X4	Y4	Z4	X5	Y5	Z5	X6	Y6	Z6	X7	Y7	Z7	X8	Y8	Z8	X9	Y9	Z9	X10	Y10	Z10	X11	Y11	Z11	X12	Y12	Z12	X13	Y13	Z13	X14	Y14	Z14	X15	Y15	Z15	X16	Y16	Z16	X17	Y17	Z17	X18	Y18	Z18	X19	Y19	Z19	X20	Y20	Z20	X21	Y21	Z21	X22	Y22	Z22	X23	Y23	Z23	X24	Y24	Z24	X25	Y25	Z25	X26	Y26	Z26	X27	Y27	Z27	X28	Y28	Z28	X29	Y29	Z29	X30	Y30	Z30	X31	Y31	Z31	X32	Y32	Z32	X33	Y33	Z33	X34	Y34	Z34	X35	Y35	Z35	X36	Y36	Z36	X37	Y37	Z37	X38	Y38	Z38	X39	Y39	Z39	X40	Y40	Z40	X41	Y41	Z41	X42	Y42	Z42	X43	Y43	Z43	X44	Y44	Z44	X45	Y45	Z45	X46	Y46	Z46	X47	Y47	Z47	X48	Y48	Z48	X49	Y49	Z49	X50	Y50	Z50	

324	1.3458	885.7	1226.1	335.31	783.26	1493.9	471.6	802.91	1495.7	140.47	788.33	1786.4	286.08	798.96	973.81	469.66	850.5	973.66	224.33	622.21	999.14	339.96	642.41	990.26	250.54	692.6	908.65	512.88	790.57	893.9	129.55	708.27	1064.8	486.21	767.86	1045.6	154.91	614.05	962.98	306.84	686.02	676.94	500.54	720.31	593.12	453.03	650.58	597.68	473.3	752.19	672.26	481.81	608.83	510.96	450.88	621.09	498.73	316.99	444.36	314.58	426.81	478.04	230.71	420.25	417.19	245.67	403.97	507.29	300.63	439.4	417.18	143.43	398.11	448.55	165.59	311.65	339.34	108.4	334	343.62	72.671	308.34	339.16	82.136	373.15	495.69	41.355	437.04	536.93	35.348	319.53	599.46	45.014	367.26	887.94	671.93	133.36	986.1	638.8	172.14	935.1	590.98	152.39	946.52	719.67	156.4	988.15	524.08	162.22	1042.9	321.8	157.25	1131.4	312.06	158.9	1082.9	261.74	175.82	1089.3	368.48	148.01	1191.2	168.41	179	1214.4	202.35	263.31	1184.6	88.073	234.7	1208.6	80.333	268.49	1206.9	67.242	209.33	1346.6	179.33	149.04	1351.5	215.13	263.86	1392.2	262.08	206.93	741.73	1530.7	307.82	622.45	1254.9	302.17
325	1.35	891.68	1224.9	335.06	789.01	1492.8	471.02	808.94	1494.3	139.85	794.02	1785.2	285.07	804.59	972.78	469.65	856.96	972.53	224.52	628.28	998.12	339.31	648.77	989.12	249.96	697.78	907.98	512.59	797.48	892.98	129.46	713.91	1063.8	485.82	774.43	1044.4	154.75	620.21	961.94	306.2	690.25	676.45	500.66	724.37	592.33	453.49	654.59	597.25	473.5	756.48	671.42	482.26	612.4	510.69	451.07	625.15	498.18	317.27	446.57	315.5	426.78	479.66	231.35	420.4	418.93	246.78	403.96	509.38	301.06	439.56	418.11	144.48	398.17	449.83	166.39	311.75	340.14	110.08	334.02	344.17	74.356	308.3	339.75	83.706	373.12	495.82	41.453	437.1	537.11	35.385	319.59	599.57	44.846	367.35	895.35	671.44	133.52	993.36	638.44	172.74	942.56	590.55	152.63	953.7	719.27	156.96	995.35	523.47	162.21	1048.2	320.7	156.73	1136.7	310.04	158.73	1087.6	260.22	175.17	1095.2	366.9	147.87	1194.8	165.88	178.53	1218	199.27	263.03	1187.5	85.289	233.97	1211.5	77.253	267.75	1209.7	64.446	208.52	1350.1	175.92	148.83	1355.2	211.12	263.82	1396.1	258.07	207.14	747.66	1529.5	307.18	628.37	1253.8	301.61
326	1.3542	897.7	1223.7	334.8	794.81	1491.7	470.43	814.99	1493	139.21	799.72	1784.1	284.03	810.26	971.77	469.65	863.49	971.43	224.72	634.41	997.12	338.63	655.2	988.02	249.36	703	907.32	512.29	804.47	892.09	129.38	719.59	1062.8	485.41	781.08	1043.2	154.59	626.43	960.92	305.53	694.53	675.98	500.78	728.5	591.57	453.97	658.67	596.85	473.71	760.83	670.61	482.71	616.06	510.45	451.28	629.31	497.63	317.57	448.86	316.46	426.74	481.33	232.04	420.55	420.74	247.95	403.94	511.53	301.52	439.72	419.1	145.6	398.22	451.18	167.24	311.86	341	111.86	334.04	344.77	76.136	308.26	340.39	85.365	373.08	495.95	41.563	437.15	537.29	35.423	319.66	599.69	44.682	367.44	902.74	670.94	133.69	1000.6	638.04	173.32	949.99	590.09	152.89	960.9	718.82	157.5	1002.5	522.82	162.21	1053.5	319.54	156.22	1141.7	307.9	158.58	1092.1	258.61	174.52	1100.9	365.21	147.74	1198.2	163.2	178.06	1221.3	196.02	262.75	1190	82.389	233.22	1214	74.034	267	1212.1	61.522	207.69	1353.3	172.26	148.64	1358.5	206.84	263.81	1399.9	253.78	207.38	753.62	1528.4	306.53	634.32	1252.7	301.05
327	1.3583	903.76	1222.6	334.52	800.64	1490.7	469.81	821.06	1491.6	138.56	805.43	1782.9	282.98	815.97	970.8	469.65	870.1	970.37	224.93	640.61	996.14	337.93	661.7	986.95	248.73	708.27	906.69	511.96	811.54	891.22	129.3	725.31	1061.9	484.99	787.82	1042	154.41	632.72	959.93	304.83	698.89	675.54	500.89	732.71	590.84	454.46	662.82	596.48	473.93	765.24	669.83	483.17	619.81	510.22	451.49	633.58	497.08	317.88	451.23	317.47	426.7	483.08	232.78	420.71	422.61	249.17	403.91	513.75	302.03	439.89	420.14	146.78	398.27	452.6	168.14	311.98	341.93	113.73	334.06	345.43	78.012	308.21	341.09	87.116	373.02	496.11	41.687	437.21	537.48	35.462	319.72	599.8	44.522	367.52	910.1	670.4	133.86	1007.8	637.57	173.89	957.37	589.58	153.15	968.1	718.33	158.01	1009.6	522.12	162.24	1058.5	318.31	155.7	1146.5	305.64	158.45	1096.3	256.93	173.85	1106.5	363.44	147.63	1201.3	160.39	177.59	1224.4	192.63	262.46	1192.2	79.406	232.45	1216.1	70.708	266.23	1214.1	58.501	206.85	1356.2	168.39	148.46	1361.7	202.33	263.81	1403.4	249.23	207.66	759.6	1527.3	305.86	640.32	1251.6	300.47
328	1.3625	909.87	1221.5	334.24	806.51	1489.7	469.18	827.15	1490.4	137.89	811.16	1781.8	281.91	821.73	969.86	469.66	876.77	969.34	225.15	646.87	995.19	337.2	668.27	985.91	248.09	713.58	906.07	511.61	818.67	890.38	129.24	731.07	1061	484.55	794.64	1040.9	154.24	639.09	958.96	304.11	703.31	675.13	501.01	736.99	590.13	454.97	667.06	596.13	474.15	769.71	669.08	483.64	623.65	510.02	451.7	637.97	496.54	318.21	453.68	318.53	426.66	484.89	233.57	420.87	424.57	250.45	403.87	516.05	302.58	440.07	421.25	148.02	398.32	454.09	169.09	312.11	342.93	115.7	334.07	346.14	79.989	308.16	341.84	88.962	372.95	496.27	41.826	437.26	537.67	35.503	319.79	599.92	44.367	367.6	917.43	669.83	134.03	1015	637.02	174.44	964.67	589.01	153.41	975.29	717.77	158.51	1016.6	521.36	162.28	1063.3	317.02	155.2	1151.2	303.29	158.34	1100.4	255.16	173.19	1111.9	361.58	147.54	1204.1	157.48	177.14	1227.2	189.11	262.19	1194.1	76.375	231.69	1218	67.313	265.47	1215.9	55.417	206	1358.9	164.34	148.3	1364.5	197.63	263.84	1406.6	244.46	207.97	765.6	1526.3	305.17	646.37	1250.5	299.88
329	1.3667	916.02	1220.5	333.95	812.42	1488.7	468.53	833.26	1489.1	137.2	816.89	1780.8	280.82	827.53	968.96	469.67	883.52	968.35	225.38	653.2	994.26	336.45	674.93	984.91	247.42	718.95	905.48	511.25	825.88	889.55	129.19	736.86	1060.2	484.09	801.56	1039.8	154.06	645.54	958.03	303.36	707.81	674.74	501.13	741.36	589.45	455.5	671.37	595.8	474.37	774.27	668.36	484.11	627.59	509.84	451.92	642.48	495.99	318.56	456.22	319.65	426.61	486.77	234.41	421.03	426.62	251.78	403.83	518.43	303.17	440.25	422.42	149.32	398.37	455.66	170.08	312.24	344.01	117.76	334.07	346.93	82.069	308.09	342.65	90.907	372.87	496.45	41.981	437.32	537.87	35.544	319.85	600.04	44.217	367.68	924.71	669.22	134.21	1022.1	636.38	174.95	971.88	588.39	153.67	982.47	717.14	158.96	1023.5	520.53	162.35	1068	315.66	154.73	1155.7	300.84	158.24	1104.2	253.34	172.54	1117.1	359.64	147.47	1206.7	154.49	176.69	1229.8	185.51	261.92	1195.8	73.332	230.93	1219.6	63.887	264.71	1217.3	52.308	205.15	1361.4	160.13	148.15	1367.2	192.76	263.88	1409.7	239.51	208.3	771.62	1525.2	304.46	652.47	1249.5	299.28
